DISC INFO:

Disc Title:     Aliens_Scontro_Finale_1986
Disc Size:      47.653.982.114 bytes
Protection:     AACS
BD-Java:        Yes
BDInfo:         0.5.6

PLAYLIST REPORT:

Name:                   00801.MPLS
Length:                 2:34:26 (h:m:s)
Size:                   41.890.990.080 bytes
Total Bitrate:          36,16 Mbps

(*) Indicates included stream hidden by this playlist.

VIDEO:

Codec                   Bitrate             Description     
-----                   -------             -----------     
MPEG-4 AVC Video        26739 kbps          1080p / 23,976 fps / 16:9 / High Profile 4.1

AUDIO:

Codec                           Language        Bitrate         Description     
-----                           --------        -------         -----------     
DTS-HD Master Audio             English         3981 kbps       5.1 / 48 kHz / 3981 kbps / 24-bit (DTS Core: 5.1 / 48 kHz / 1509 kbps / 24-bit)
DTS Audio                       Italian         768 kbps        5.1 / 48 kHz / 768 kbps / 24-bit
* DTS Audio                     Japanese        768 kbps        5.1 / 48 kHz / 768 kbps / 24-bit
* Dolby Digital Audio           English         448 kbps        5.1 / 48 kHz / 448 kbps / DN -4dB
* Dolby Digital Audio           English         448 kbps        5.1 / 48 kHz / 448 kbps / DN -4dB
Dolby Digital Audio             Thai            448 kbps        5.1 / 48 kHz / 448 kbps / DN -4dB
Dolby Digital Audio             English         224 kbps        2.0 / 48 kHz / 224 kbps / DN -4dB

SUBTITLES:

Codec                           Language        Bitrate         Description     
-----                           --------        -------         -----------     
Presentation Graphics           English         20,972 kbps                     
Presentation Graphics           Chinese         16,732 kbps                     
Presentation Graphics           Chinese         16,859 kbps                     
Presentation Graphics           Indonesian      21,831 kbps                     
Presentation Graphics           Italian         21,043 kbps                     
Presentation Graphics           Italian         52,192 kbps                     
* Presentation Graphics         Japanese        13,394 kbps                     
* Presentation Graphics         Japanese        0,047 kbps                     
* Presentation Graphics         Japanese        41,469 kbps                     
Presentation Graphics           Korean          14,484 kbps                     
Presentation Graphics           Korean          34,494 kbps                     
Presentation Graphics           Tagalog         24,167 kbps                     
Presentation Graphics           Thai            18,575 kbps                     

FILES:

Name            Time In         Length          Size            Total Bitrate   
----            -------         ------          ----            -------------   
01106.M2TS      0:00:00.000     0:08:29.842     2.494.279.680   39.138         
01107.M2TS      0:08:29.842     0:02:36.573     700.090.368     35.771         
01108.M2TS      0:11:06.415     0:02:22.851     624.439.296     34.970         
01109.M2TS      0:13:29.266     0:07:49.343     2.108.491.776   35.939         
01110.M2TS      0:21:18.610     0:00:56.890     243.412.992     34.229         
01111.M2TS      0:22:15.500     0:00:56.681     242.792.448     34.268         
01112.M2TS      0:23:12.182     0:02:28.022     637.452.288     34.452         
01113.M2TS      0:25:40.205     0:02:54.549     753.795.072     34.548         
01114.M2TS      0:28:34.754     0:14:45.551     3.955.894.272   35.737         
01116.M2TS      0:43:20.305     0:01:57.200     529.047.552     36.112         
01117.M2TS      0:45:17.506     0:04:47.245     1.276.385.280   35.548         
01118.M2TS      0:50:04.751     0:01:07.984     281.745.408     33.154         
01119.M2TS      0:51:12.736     0:01:02.520     295.864.320     37.858         
01120.M2TS      0:52:15.257     0:01:17.202     339.204.096     35.150         
01121.M2TS      0:53:32.459     0:32:38.164     8.899.909.632   36.360         
01124.M2TS      1:26:10.623     0:07:06.509     1.862.811.648   34.941         
01125.M2TS      1:33:17.133     0:01:20.288     346.589.184     34.534         
01126.M2TS      1:34:37.421     0:01:15.742     322.596.864     34.073         
01127.M2TS      1:35:53.163     0:01:16.576     328.329.216     34.301         
01128.M2TS      1:37:09.740     0:01:30.965     389.787.648     34.280         
01129.M2TS      1:38:40.706     0:02:36.698     685.621.248     35.003         
01130.M2TS      1:41:17.404     0:02:02.622     542.730.240     35.408         
01131.M2TS      1:43:20.026     0:23:14.518     6.473.865.216   37.139         
01133.M2TS      2:06:34.545     0:01:24.084     386.291.712     36.753         
01134.M2TS      2:07:58.629     0:23:09.471     6.322.599.936   36.403         
01136.M2TS      2:31:08.100     0:03:18.865     846.962.688     34.072         
